<?xml version="1.0" encoding="utf-8"?>
<!-- Generator: Adobe Illustrator 24.3.0, SVG Export Plug-In . SVG Version: 6.00 Build 0)  -->
<svg version="1.1" id="Layer_1" xmlns="http://www.w3.org/2000/svg" xmlns:xlink="http://www.w3.org/1999/xlink" x="0px" y="0px"
	 viewBox="0 0 531 529" style="enable-background:new 0 0 531 529;" xml:space="preserve">
<style type="text/css">
	.st0{fill:#019934;}
	.st1{fill:#FCCC01;}
</style>
<path class="st0" d="M218.17,235.65c-34.62-24-69.71-47.37-103.63-72.31c-13.28-9.76-26.61-22.77-17.32-42.06
	c8.34-17.32,18.1-35.17,42.07-32.55c24.19,2.64,36.26-14.99,51.36-28.46c30.5-27.22,60.27-21.94,80.42,13.54
	c1.61,50.63,9.61,101.36-2.66,151.75C253.59,238.48,237.22,243.74,218.17,235.65z"/>
<path class="st0" d="M312.1,256.09c44.66-0.66,89.32-1.55,133.98-1.9c41.66-0.32,57.77,26.39,33.33,61.33
	c-17.54,25.08-33.77,47.54-39.42,79.62c-5.68,32.23-46.42,38.04-68.89,10.41c-26.43-32.52-48.71-68.42-72.78-102.85
	C291.3,283.72,302.48,270.14,312.1,256.09z"/>
<path class="st0" d="M223.69,301.5c-28.28,21.69-56.35,43.65-84.91,64.95c-14.87,11.09-31.35,19.42-48.7,5.44
	C74.34,359.19,64.38,343.52,73.65,322c7.98-18.53-0.3-34.51-7.64-50.94c-7.17-16.04-15.83-31.59-7.98-50.85
	c8.97-22.01,20.21-33.41,46.13-23.68c39.26,14.75,79.42,27.11,119.2,40.49C228.23,258.49,228.02,279.98,223.69,301.5z"/>
<path class="st0" d="M293.2,303.74c12.41,37.34,25.1,74.59,37.1,112.06c4.52,14.12,12.64,29.45-2.62,42.17
	c-14.58,12.16-31.67,17.36-49.72,9.42c-25.75-11.33-50.17-21.5-80.23-12.97c-15.72,4.46-31.69-6.5-41.05-22.02
	c-9.93-16.47-0.78-28.76,8.94-41.14c22.75-28.98,45.28-58.14,67.89-87.22C253.36,294.66,273.27,296.65,293.2,303.74z"/>
<path class="st0" d="M275.23,210.69c12.33-40.28,23.93-80.81,37.37-120.71c5.26-15.61,13.6-32.28,34.8-29.29
	c19.04,2.68,39.01,6.55,43.8,30.18c4.83,23.84,25.31,29.99,42.73,40.27c35.2,20.78,39.22,50.74,11.56,80.73
	c-47.74,16.93-93.64,39.97-145.38,43.61C283.3,245.29,273.31,231.3,275.23,210.69z"/>
<circle class="st1" cx="265" cy="264" r="53"/>
</svg>
